<?xml version="1.0" encoding="UTF-8" standalone="no"?>
<!-- Created with Inkscape (http://www.inkscape.org/) -->

<svg
   width="512"
   height="512"
   viewBox="0 0 135.46667 135.46667"
   version="1.1"
   id="svg5"
   inkscape:version="1.1 (c68e22c387, 2021-05-23)"
   sodipodi:docname="note-shrimp.svg"
   inkscape:export-filename="C:\Users\jimmy\OneDrive\Desktop\note-shrimp.png"
   inkscape:export-xdpi="96"
   inkscape:export-ydpi="96"
   xmlns:inkscape="http://www.inkscape.org/namespaces/inkscape"
   xmlns:sodipodi="http://sodipodi.sourceforge.net/DTD/sodipodi-0.dtd"
   xmlns="http://www.w3.org/2000/svg"
   xmlns:svg="http://www.w3.org/2000/svg">
  <sodipodi:namedview
     id="namedview7"
     pagecolor="#ffffff"
     bordercolor="#666666"
     borderopacity="1.0"
     inkscape:pageshadow="2"
     inkscape:pageopacity="0"
     inkscape:pagecheckerboard="true"
     inkscape:document-units="px"
     showgrid="false"
     inkscape:zoom="1.2056723"
     inkscape:cx="396.0446"
     inkscape:cy="212.74437"
     inkscape:window-width="2560"
     inkscape:window-height="1377"
     inkscape:window-x="2728"
     inkscape:window-y="-8"
     inkscape:window-maximized="1"
     inkscape:current-layer="layer1" />
  <defs
     id="defs2">
    <clipPath
       clipPathUnits="userSpaceOnUse"
       id="clipPath23">
      <path
         d="M 0,600 H 600 V 0 H 0 Z"
         id="path21" />
    </clipPath>
  </defs>
  <g
     inkscape:label="Layer 1"
     inkscape:groupmode="layer"
     id="layer1">
    <g
       id="g4907"
       transform="translate(-0.85345699,-0.18478794)">
      <rect
         height="134.3718"
         width="100.54994"
         stroke="#e9e9ea"
         y="0.72964454"
         x="18.311821"
         fill="#ffffff"
         id="rect496"
         style="fill:#73b3d4;fill-opacity:1;stroke-width:0.351342" />
      <line
         x1="34.73156"
         y1="0.80508822"
         stroke="#dd1d1a"
         x2="34.73156"
         y2="135.28227"
         fill="none"
         id="line498"
         style="stroke-width:0.351498" />
      <line
         opacity="0.57"
         x1="18.306742"
         y1="18.008598"
         stroke="#1d3a8d"
         x2="118.86684"
         y2="18.008598"
         fill="none"
         id="line500"
         style="stroke-width:0.351498" />
      <line
         opacity="0.57"
         x1="18.306742"
         y1="27.611591"
         stroke="#1d3a8d"
         x2="118.86684"
         y2="27.611591"
         fill="none"
         id="line502"
         style="stroke-width:0.351498" />
      <line
         opacity="0.57"
         x1="18.306742"
         y1="37.834801"
         stroke="#1d3a8d"
         x2="118.86684"
         y2="37.834801"
         fill="none"
         id="line504"
         style="stroke-width:0.351498" />
      <line
         opacity="0.57"
         x1="18.306742"
         y1="47.438808"
         stroke="#1d3a8d"
         x2="118.86684"
         y2="47.438808"
         fill="none"
         id="line506"
         style="stroke-width:0.351498" />
      <line
         opacity="0.57"
         x1="18.306742"
         y1="57.350727"
         stroke="#1d3a8d"
         x2="118.86684"
         y2="57.350727"
         fill="none"
         id="line508"
         style="stroke-width:0.351498" />
      <line
         opacity="0.57"
         x1="18.306742"
         y1="66.954056"
         stroke="#1d3a8d"
         x2="118.86684"
         y2="66.954056"
         fill="none"
         id="line510"
         style="stroke-width:0.351498" />
      <line
         opacity="0.57"
         x1="18.306742"
         y1="77.177948"
         stroke="#1d3a8d"
         x2="118.86684"
         y2="77.177948"
         fill="none"
         id="line512"
         style="stroke-width:0.351498" />
      <line
         opacity="0.57"
         x1="18.306742"
         y1="86.781281"
         stroke="#1d3a8d"
         x2="118.86684"
         y2="86.781281"
         fill="none"
         id="line514"
         style="stroke-width:0.351498" />
      <line
         opacity="0.57"
         x1="18.306742"
         y1="96.072639"
         stroke="#1d3a8d"
         x2="118.86684"
         y2="96.072639"
         fill="none"
         id="line516"
         style="stroke-width:0.351498" />
      <line
         opacity="0.57"
         x1="18.306742"
         y1="105.67598"
         stroke="#1d3a8d"
         x2="118.86684"
         y2="105.67598"
         fill="none"
         id="line518"
         style="stroke-width:0.351498" />
      <line
         opacity="0.57"
         x1="18.306742"
         y1="115.89987"
         stroke="#1d3a8d"
         x2="118.86684"
         y2="115.89987"
         fill="none"
         id="line520"
         style="stroke-width:0.351498" />
      <line
         opacity="0.57"
         x1="18.306742"
         y1="125.5032"
         stroke="#1d3a8d"
         x2="118.86684"
         y2="125.5032"
         fill="none"
         id="line522"
         style="stroke-width:0.351498" />
    </g>
    <g
       id="g3823"
       transform="matrix(1.7182383,0,0,1.6297713,-206.33881,-4.653281)">
      <path
         d="m 150.19805,33.918169 h -1.44776 c -1.62306,0 -2.93877,-1.682938 -2.93877,-3.759105 0,-2.076082 1.31571,-3.759106 2.93877,-3.759106 2.47573,0 4.90781,-0.833501 7.05187,-2.416982 0.0583,-0.04304 0.13185,-0.03068 0.17949,0.03017 0.0476,0.06094 0.0572,0.155024 0.0236,0.229596 -2.34801,1.888757 -4.18853,2.733763 -7.1792,3.002393 -1.28839,0.115735 -2.16252,1.350305 -2.01041,3.178296 0.15957,1.916371 1.57941,2.399511 2.69259,2.25693 z"
         style="fill:#b93921;fill-opacity:1;fill-rule:evenodd;stroke:none;stroke-width:0.0753531"
         id="path75" />
      <path
         d="m 174.73763,52.909544 0.33945,1.209599 c 1.26008,4.491359 0.20854,9.511456 -2.63836,12.594981 l -0.0802,-1.5159 c -0.0416,-0.785433 -0.38636,-1.492717 -0.91929,-1.886369 -0.53294,-0.393568 -1.18427,-0.421863 -1.73679,-0.07525 -1.22977,0.771629 -2.71611,0.262238 -3.47956,-1.192638 l 0.48789,-1.318943 c 0.96474,-2.607886 2.39318,-4.947739 4.20731,-6.605877 0.63381,-0.579275 1.34803,-0.980173 2.06012,-1.411241 z"
         style="fill:#b93921;fill-opacity:1;fill-rule:evenodd;stroke:none;stroke-width:0.0753531"
         id="path77" />
      <path
         d="m 170.91821,54.119143 h 4.15887 V 48.11146 h -4.15887 z"
         style="fill:#e64c1e;fill-opacity:1;fill-rule:evenodd;stroke:none;stroke-width:0.0753531"
         id="path79" />
      <path
         d="m 164.69176,45.185259 h -7.52265 c -5.83896,0 -10.57241,-6.055068 -10.57241,-13.524019 h 20.45339 z"
         style="fill:#d64520;fill-opacity:1;fill-rule:evenodd;stroke:none;stroke-width:0.0753531"
         id="path81" />
      <path
         d="m 164.69176,45.185259 h -7.52265 c -5.83896,0 -10.57241,-6.055068 -10.57241,-13.524019 0,5.601841 4.73345,10.142971 10.57241,10.142971 h 8.11214 z"
         style="fill:#b93921;fill-opacity:1;fill-rule:evenodd;stroke:none;stroke-width:0.0753531"
         id="path83" />
      <path
         d="m 151.18151,36.134446 c 0.80064,0 1.45369,-0.835205 1.45369,-1.85944 0,-1.024234 -0.65305,-1.85961 -1.45369,-1.85961 -0.8007,0 -1.45376,0.835376 -1.45376,1.85961 0,1.024235 0.65306,1.85944 1.45376,1.85944"
         style="fill:#ffffff;fill-opacity:1;fill-rule:evenodd;stroke:none;stroke-width:0.0753531"
         id="path85" />
      <path
         d="m 151.18151,35.090269 c 0.35098,0 0.63734,-0.366212 0.63734,-0.815263 0,-0.44905 -0.28636,-0.815263 -0.63734,-0.815263 -0.35098,0 -0.63727,0.366213 -0.63727,0.815263 0,0.449051 0.28629,0.815263 0.63727,0.815263"
         style="fill:#57494b;fill-opacity:1;fill-rule:evenodd;stroke:none;stroke-width:0.0753531"
         id="path89" />
      <path
         d="m 151.54435,34.291114 c 0.20681,0 0.37543,-0.215705 0.37543,-0.480243 0,-0.264624 -0.16862,-0.480328 -0.37543,-0.480328 -0.20687,0 -0.3755,0.215704 -0.3755,0.480328 0,0.264538 0.16863,0.480243 0.3755,0.480243"
         style="fill:#ffffff;fill-opacity:1;fill-rule:evenodd;stroke:none;stroke-width:0.0753531"
         id="path91" />
      <path
         d="m 166.91383,32.44318 6.08375,4.493063 -4.53644,10.050843 -3.68117,-2.308405 z"
         style="fill:#b93921;fill-opacity:1;fill-rule:evenodd;stroke:none;stroke-width:0.0753531"
         id="path93" />
      <path
         d="m 166.91383,32.44318 -0.9987,11.455181 2.54601,3.088725 -3.68117,-2.308405 z"
         style="fill:#982d1e;fill-opacity:1;fill-rule:evenodd;stroke:none;stroke-width:0.0753531"
         id="path95" />
      <path
         d="m 153.94625,43.130739 -0.28462,0.832222 c -0.38283,1.119175 -1.29053,1.78947 -2.23967,1.654048 -0.85813,-0.122639 -1.71333,0.260703 -2.32395,1.041961 -0.61055,0.780917 -0.91024,1.874695 -0.81456,2.972564 0.006,0.07116 0.0445,0.131076 0.0977,0.153064 0.0533,0.02182 0.11167,0.0019 0.14911,-0.05114 0.0375,-0.05318 0.0472,-0.129372 0.0248,-0.194995 l -0.0372,-0.322065 0.0406,-0.49405 c 0.105,-1.275989 0.89331,-2.284457 1.89082,-2.418771 0.45286,-0.06094 0.90944,-0.06094 1.36229,0 1.29013,0.173858 2.52103,-0.735322 3.0485,-2.251475 0.11159,-0.320787 0.0388,-0.697567 -0.17683,-0.915147 -0.21559,-0.217409 -0.64053,-0.287975 -0.73694,-0.0062"
         style="fill:#982d1e;fill-opacity:1;fill-rule:evenodd;stroke:none;stroke-width:0.0753531"
         id="path97" />
      <path
         d="m 156.62065,42.97009 -0.11779,0.926566 c -0.1581,1.246246 -0.93202,2.215766 -1.90934,2.392267 -0.88365,0.159456 -1.66257,0.824467 -2.11675,1.807282 -0.45432,0.982559 -0.5344,2.176051 -0.21806,3.243494 0.0205,0.06895 0.0709,0.116417 0.12858,0.120849 0.0577,0.0043 0.11213,-0.03477 0.13891,-0.100225 0.027,-0.06537 0.0214,-0.144882 -0.0143,-0.203176 l -0.10206,-0.310219 -0.0586,-0.507941 c -0.1513,-1.311869 0.43513,-2.580444 1.40666,-3.043045 0.44106,-0.209909 0.89804,-0.359905 1.36355,-0.447773 1.32651,-0.250306 2.37592,-1.564987 2.59905,-3.256192 0.0474,-0.357945 -0.10127,-0.711118 -0.36085,-0.857875 -0.25943,-0.146843 -0.69903,-0.07764 -0.73893,0.235988"
         style="fill:#982d1e;fill-opacity:1;fill-rule:evenodd;stroke:none;stroke-width:0.0753531"
         id="path99" />
      <path
         d="m 159.3273,43.897764 -1.4e-4,0.898698 c -3.3e-4,1.208747 -0.61561,2.276616 -1.51805,2.634902 -0.81589,0.324111 -1.47241,1.105028 -1.78395,2.1227 -0.31154,1.017672 -0.24432,2.161307 0.18255,3.107986 0.0276,0.06128 0.0807,0.09613 0.13585,0.08906 0.055,-0.007 0.10193,-0.05472 0.11939,-0.121957 0.0176,-0.06707 0.003,-0.141133 -0.0378,-0.189285 l -0.13371,-0.272891 -0.1162,-0.468652 c -0.30021,-1.210025 0.10214,-2.523939 0.96493,-3.151281 0.39156,-0.284992 0.8055,-0.516378 1.23497,-0.690578 1.22337,-0.496521 2.05765,-1.944665 2.06611,-3.586525 0.002,-0.347462 -0.18096,-0.652312 -0.44386,-0.74018 -0.26283,-0.08787 -0.66991,0.06375 -0.67004,0.368002"
         style="fill:#982d1e;fill-opacity:1;fill-rule:evenodd;stroke:none;stroke-width:0.0753531"
         id="path101" />
      <path
         d="m 172.79424,37.386742 2.62216,5.558718 -5.36752,5.958934 -1.41345,-2.303292 z"
         style="fill:#e64c1e;fill-opacity:1;fill-rule:evenodd;stroke:none;stroke-width:0.0753531"
         id="path103" />
      <path
         d="m 172.79424,37.386742 -2.99947,9.020984 0.25411,2.496668 -1.41345,-2.303292 z"
         style="fill:#d04021;fill-opacity:1;fill-rule:evenodd;stroke:none;stroke-width:0.0753531"
         id="path105" />
      <path
         d="m 175.20574,43.179488 0.21066,5.724906 -4.70167,1.716687 -0.4783,-1.924637 z"
         style="fill:#b93921;fill-opacity:1;fill-rule:evenodd;stroke:none;stroke-width:0.0753531"
         id="path107" />
      <path
         d="m 175.15936,43.230964 -4.02282,5.67343 -0.42181,1.716687 -0.4783,-1.924637 z"
         style="fill:#982d1e;fill-opacity:1;fill-rule:evenodd;stroke:none;stroke-width:0.0753531"
         id="path109" />
      <path
         d="m 175.07708,49.028481 -3.42207,2.282071 -0.73694,2.808591 v -3.572292 z"
         style="fill:#d04021;fill-opacity:1;fill-rule:evenodd;stroke:none;stroke-width:0.0753531"
         id="path111" />
      <path
         d="m 148.21682,33.026715 h -1.58587 c -1.77776,0 -3.21886,-1.843502 -3.21886,-4.117476 0,-2.27406 1.4411,-4.117563 3.21886,-4.117563 2.71177,0 5.37571,-0.913015 7.72412,-2.64743 0.0639,-0.04721 0.1445,-0.03366 0.1966,0.03307 0.0521,0.06665 0.0627,0.169853 0.0258,0.251499 -2.57186,2.068838 -4.5878,2.994467 -7.8635,3.288663 -1.41138,0.126815 -2.36879,1.478996 -2.20216,3.481272 0.1747,2.099093 1.72999,2.62817 2.9493,2.472123 z"
         style="fill:#d64520;fill-opacity:1;fill-rule:evenodd;stroke:none;stroke-width:0.0753531"
         id="path113" />
    </g>
  </g>
</svg>
